<svg xmlns="http://www.w3.org/2000/svg" viewBox="0 0 302.91 288.29"><defs><style>.a,.b{fill:none;stroke-width:3px;}.a{stroke:#e6e6e6;}.b{stroke:#fff;}</style></defs><path class="a" d="M205.6,284.13c-2.4-2.3-17.2-26.9-28.3-46.9-2.1-3.9-3.5-5.3-5.8-5.7a19.32,19.32,0,0,1-6.8-4.2c-4.7-4.2-8.2-4.7-8.2-1.2a6.63,6.63,0,0,0,2,4.2c2.4,2.1,2.6,6.7.5,8.5-1.3,1-2.3,1-5.4-.5-4.3-1.9-8.1-7.6-8.1-12.2s4.3-9.9,9.4-11.8c5.6-2.2,10-.9,15,4.3,2,2,3.8,3.4,4,3.1s7.1-11.9,15.1-25.9,15.2-26,15.7-26.7,2.5-1.7,4.5-2.4c2.9-.9,4.1-.8,7.2.6,5.7,2.5,7.1,5.7,7.1,16.4v9.1h31c25.4,0,31.2.3,31.6,1.4.3.7-2,5.8-5.2,11.2-18.2,31.6-25,43.2-26.8,45.8-3.2,4.5-12.9,8.6-20.1,8.6-10.7,0-10.5-.2-10.5,10.4,0,10.1-1,12.5-6,15.1C213,287.63,208.9,287.23,205.6,284.13Zm6.9-16.3v-8h-5c-2.7,0-5,.2-5,.5s3.3,6,7.7,13.3a6.53,6.53,0,0,0,1.8,2.2C212.3,275.83,212.5,272.23,212.5,267.83Zm-7.9-24.9c6.6-6.8,8.4-14.2,5.8-23.6-1.3-4.8-10.8-14.9-13.5-14.3-1.7.3-13.3,19.1-13.4,21.6,0,.7,2.6,5.8,5.8,11.3C196.2,249.93,197.5,250.33,204.6,242.93Zm7.9-57.6c0-4.1-.4-7.5-.8-7.5-.9,0-8.2,12.4-8.2,14,0,.5,2,1,4.5,1h4.5Z"/><path class="a" d="M204.6,283.13c-2.4-2.3-17.2-26.9-28.3-46.9-2.1-3.9-3.5-5.3-5.8-5.7a19.32,19.32,0,0,1-6.8-4.2c-4.7-4.2-8.2-4.7-8.2-1.2a6.63,6.63,0,0,0,2,4.2c2.4,2.1,2.6,6.7.5,8.5-1.3,1-2.3,1-5.4-.5-4.3-1.9-8.1-7.6-8.1-12.2s4.3-9.9,9.4-11.8c5.6-2.2,10-.9,15,4.3,2,2,3.8,3.4,4,3.1s7.1-11.9,15.1-25.9,15.2-26,15.7-26.7,2.5-1.7,4.5-2.4c2.9-.9,4.1-.8,7.2.6,5.7,2.5,7.1,5.7,7.1,16.4v9.1h31c25.4,0,31.2.3,31.6,1.4.3.7-2,5.8-5.2,11.2-18.2,31.6-25,43.2-26.8,45.8-3.2,4.5-12.9,8.6-20.1,8.6-10.7,0-10.5-.2-10.5,10.4,0,10.1-1,12.5-6,15.1C212,286.63,207.9,286.23,204.6,283.13Zm6.9-16.3v-8h-5c-2.7,0-5,.2-5,.5s3.3,6,7.7,13.3a6.53,6.53,0,0,0,1.8,2.2C211.3,274.83,211.5,271.23,211.5,266.83Zm-7.9-24.9c6.6-6.8,8.4-14.2,5.8-23.6-1.3-4.8-10.8-14.9-13.5-14.3-1.7.3-13.3,19.1-13.4,21.6,0,.7,2.6,5.8,5.8,11.3C195.2,248.93,196.5,249.33,203.6,241.93Zm7.9-57.6c0-4.1-.4-7.5-.8-7.5-.9,0-8.2,12.4-8.2,14,0,.5,2,1,4.5,1h4.5Z"/><path class="a" d="M203.6,282.13c-2.4-2.3-17.2-26.9-28.3-46.9-2.1-3.9-3.5-5.3-5.8-5.7a19.32,19.32,0,0,1-6.8-4.2c-4.7-4.2-8.2-4.7-8.2-1.2a6.63,6.63,0,0,0,2,4.2c2.4,2.1,2.6,6.7.5,8.5-1.3,1-2.3,1-5.4-.5-4.3-1.9-8.1-7.6-8.1-12.2s4.3-9.9,9.4-11.8c5.6-2.2,10-.9,15,4.3,2,2,3.8,3.4,4,3.1s7.1-11.9,15.1-25.9,15.2-26,15.7-26.7,2.5-1.7,4.5-2.4c2.9-.9,4.1-.8,7.2.6,5.7,2.5,7.1,5.7,7.1,16.4v9.1h31c25.4,0,31.2.3,31.6,1.4.3.7-2,5.8-5.2,11.2-18.2,31.6-25,43.2-26.8,45.8-3.2,4.5-12.9,8.6-20.1,8.6-10.7,0-10.5-.2-10.5,10.4,0,10.1-1,12.5-6,15.1C211,285.63,206.9,285.23,203.6,282.13Zm6.9-16.3v-8h-5c-2.7,0-5,.2-5,.5s3.3,6,7.7,13.3a6.53,6.53,0,0,0,1.8,2.2C210.3,273.83,210.5,270.23,210.5,265.83Zm-7.9-24.9c6.6-6.8,8.4-14.2,5.8-23.6-1.3-4.8-10.8-14.9-13.5-14.3-1.7.3-13.3,19.1-13.4,21.6,0,.7,2.6,5.8,5.8,11.3C194.2,247.93,195.5,248.33,202.6,240.93Zm7.9-57.6c0-4.1-.4-7.5-.8-7.5-.9,0-8.2,12.4-8.2,14,0,.5,2,1,4.5,1h4.5Z"/><path class="a" d="M202.6,281.13c-2.4-2.3-17.2-26.9-28.3-46.9-2.1-3.9-3.5-5.3-5.8-5.7a19.32,19.32,0,0,1-6.8-4.2c-4.7-4.2-8.2-4.7-8.2-1.2a6.63,6.63,0,0,0,2,4.2c2.4,2.1,2.6,6.7.5,8.5-1.3,1-2.3,1-5.4-.5-4.3-1.9-8.1-7.6-8.1-12.2s4.3-9.9,9.4-11.8c5.6-2.2,10-.9,15,4.3,2,2,3.8,3.4,4,3.1s7.1-11.9,15.1-25.9,15.2-26,15.7-26.7,2.5-1.7,4.5-2.4c2.9-.9,4.1-.8,7.2.6,5.7,2.5,7.1,5.7,7.1,16.4v9.1h31c25.4,0,31.2.3,31.6,1.4.3.7-2,5.8-5.2,11.2-18.2,31.6-25,43.2-26.8,45.8-3.2,4.5-12.9,8.6-20.1,8.6-10.7,0-10.5-.2-10.5,10.4,0,10.1-1,12.5-6,15.1C210,284.63,205.9,284.23,202.6,281.13Zm6.9-16.3v-8h-5c-2.7,0-5,.2-5,.5s3.3,6,7.7,13.3a6.53,6.53,0,0,0,1.8,2.2C209.3,272.83,209.5,269.23,209.5,264.83Zm-7.9-24.9c6.6-6.8,8.4-14.2,5.8-23.6-1.3-4.8-10.8-14.9-13.5-14.3-1.7.3-13.3,19.1-13.4,21.6,0,.7,2.6,5.8,5.8,11.3C193.2,246.93,194.5,247.33,201.6,239.93Zm7.9-57.6c0-4.1-.4-7.5-.8-7.5-.9,0-8.2,12.4-8.2,14,0,.5,2,1,4.5,1h4.5Z"/><path class="b" d="M202.6,281.13c-2.4-2.3-17.2-26.9-28.3-46.9-2.1-3.9-3.5-5.3-5.8-5.7a19.32,19.32,0,0,1-6.8-4.2c-4.7-4.2-8.2-4.7-8.2-1.2a6.63,6.63,0,0,0,2,4.2c2.4,2.1,2.6,6.7.5,8.5-1.3,1-2.3,1-5.4-.5-4.3-1.9-8.1-7.6-8.1-12.2s4.3-9.9,9.4-11.8c5.6-2.2,10-.9,15,4.3,2,2,3.8,3.4,4,3.1s7.1-11.9,15.1-25.9,15.2-26,15.7-26.7,2.5-1.7,4.5-2.4c2.9-.9,4.1-.8,7.2.6,5.7,2.5,7.1,5.7,7.1,16.4v9.1h31c25.4,0,31.2.3,31.6,1.4.3.7-2,5.8-5.2,11.2-18.2,31.6-25,43.2-26.8,45.8-3.2,4.5-12.9,8.6-20.1,8.6-10.7,0-10.5-.2-10.5,10.4,0,10.1-1,12.5-6,15.1C210,284.63,205.9,284.23,202.6,281.13Zm6.9-16.3v-8h-5c-2.7,0-5,.2-5,.5s3.3,6,7.7,13.3a6.53,6.53,0,0,0,1.8,2.2C209.3,272.83,209.5,269.23,209.5,264.83Zm-7.9-24.9c6.6-6.8,8.4-14.2,5.8-23.6-1.3-4.8-10.8-14.9-13.5-14.3-1.7.3-13.3,19.1-13.4,21.6,0,.7,2.6,5.8,5.8,11.3C193.2,246.93,194.5,247.33,201.6,239.93Zm7.9-57.6c0-4.1-.4-7.5-.8-7.5-.9,0-8.2,12.4-8.2,14,0,.5,2,1,4.5,1h4.5Z"/><path class="a" d="M78.5,259.83c-11.9-1.2-19.3-7.4-22.6-18.8-1.3-4.4-1.4-6.2-.4-10,1.1-4.3,16.3-32.3,19.8-36.4,1.4-1.6,4.2-1.8,32.2-1.8,19.7,0,31,.4,31.6,1s.5,3.6-.7,9.3c-3.7,16.5-3.4,36.2.6,50.1,1.1,3.6,1.2,5.3.4,6.3s-6.6,1.3-27.8,1.2C97,260.63,82.1,260.23,78.5,259.83Z"/><path class="a" d="M77.5,258.83c-11.9-1.2-19.3-7.4-22.6-18.8-1.3-4.4-1.4-6.2-.4-10,1.1-4.3,16.3-32.3,19.8-36.4,1.4-1.6,4.2-1.8,32.2-1.8,19.7,0,31,.4,31.6,1s.5,3.6-.7,9.3c-3.7,16.5-3.4,36.2.6,50.1,1.1,3.6,1.2,5.3.4,6.3s-6.6,1.3-27.8,1.2C96,259.63,81.1,259.23,77.5,258.83Z"/><path class="a" d="M76.5,257.83c-11.9-1.2-19.3-7.4-22.6-18.8-1.3-4.4-1.4-6.2-.4-10,1.1-4.3,16.3-32.3,19.8-36.4,1.4-1.6,4.2-1.8,32.2-1.8,19.7,0,31,.4,31.6,1s.5,3.6-.7,9.3c-3.7,16.5-3.4,36.2.6,50.1,1.1,3.6,1.2,5.3.4,6.3s-6.6,1.3-27.8,1.2C95,258.63,80.1,258.23,76.5,257.83Z"/><path class="a" d="M75.5,256.83c-11.9-1.2-19.3-7.4-22.6-18.8-1.3-4.4-1.4-6.2-.4-10,1.1-4.3,16.3-32.3,19.8-36.4,1.4-1.6,4.2-1.8,32.2-1.8,19.7,0,31,.4,31.6,1s.5,3.6-.7,9.3c-3.7,16.5-3.4,36.2.6,50.1,1.1,3.6,1.2,5.3.4,6.3s-6.6,1.3-27.8,1.2C94,257.63,79.1,257.23,75.5,256.83Z"/><path class="b" d="M75.5,256.83c-11.9-1.2-19.3-7.4-22.6-18.8-1.3-4.4-1.4-6.2-.4-10,1.1-4.3,16.3-32.3,19.8-36.4,1.4-1.6,4.2-1.8,32.2-1.8,19.7,0,31,.4,31.6,1s.5,3.6-.7,9.3c-3.7,16.5-3.4,36.2.6,50.1,1.1,3.6,1.2,5.3.4,6.3s-6.6,1.3-27.8,1.2C94,257.63,79.1,257.23,75.5,256.83Z"/><path class="a" d="M42.1,219c-2.7-4.8-7.5-13.1-10.8-18.4s-5.8-9.9-5.8-10.2a54.44,54.44,0,0,0-4.1-7.2c-9.2-15.1-9.7-20.6-2.9-33.1,2.2-4.1,4-8,4-8.6s-2.7-2.7-5.9-4.4c-10-5.5-12.1-7.8-12.1-13,0-5.5,1.2-7.8,5.3-10,2.8-1.6,6.5-1.8,33.1-1.8,27.1-.1,29.9-.2,31.1-1.8.7-1,4-2.7,7.4-3.8,5.3-1.8,6.2-2.4,5.9-4.3s-1-2.1-4.9-2.1c-4.5-.1-9.9-2.5-9.9-4.5,0-1.7,4.4-5,8.2-6.2,3.1-.9,4.5-.8,8.4.7S94,92.83,96,97c1.8,3.9,2.1,5.7,1.4,8-1.8,6.5-5.5,9.7-12.6,11.3-1.8.3-3.3,1-3.3,1.4s5.5,10.2,12.1,21.7c15.6,26.9,17.9,31.2,17.9,33.6,0,5.2-5.8,10.8-11.1,10.8-1.2,0-6-2.1-10.7-4.6s-8.8-4.2-9.2-3.7-7.4,12.4-15.5,26.6c-10,17.4-15.2,25.7-16.3,25.7S45.2,224.63,42.1,219Zm58.4-46.9c0-1.2-8.3-15.3-9-15.3s-4,6.7-4,8.4c0,.8,2.4,2.8,5.3,4.4C97.9,172.63,100.5,173.53,100.5,172.13Zm-20.1-23.7c1.8-1,3.4-2.3,3.7-3s-2.1-5.8-5.3-11.4L73,123.93l-13.4-.1H46.2l.7,6.2c1,9.5,7,17.1,15.6,19.7C67.2,151.13,76.4,150.43,80.4,148.43Zm-49.1-20.6a26.91,26.91,0,0,0,2.2-4.4c0-.8-13.9-.6-16.8.2-2.1.6-1.6,1.1,4,4.4,3.5,2,6.8,3.7,7.3,3.7S30,130,31.3,127.83Z"/><path class="a" d="M41.1,218c-2.7-4.8-7.5-13.1-10.8-18.4s-5.8-9.9-5.8-10.2a54.44,54.44,0,0,0-4.1-7.2c-9.2-15.1-9.7-20.6-2.9-33.1,2.2-4.1,4-8,4-8.6s-2.7-2.7-5.9-4.4c-10-5.5-12.1-7.8-12.1-13,0-5.5,1.2-7.8,5.3-10,2.8-1.6,6.5-1.8,33.1-1.8,27.1-.1,29.9-.2,31.1-1.8.7-1,4-2.7,7.4-3.8,5.3-1.8,6.2-2.4,5.9-4.3s-1-2.1-4.9-2.1c-4.5-.1-9.9-2.5-9.9-4.5,0-1.7,4.4-5,8.2-6.2,3.1-.9,4.5-.8,8.4.7S93,91.83,95,96c1.8,3.9,2.1,5.7,1.4,8-1.8,6.5-5.5,9.7-12.6,11.3-1.8.3-3.3,1-3.3,1.4s5.5,10.2,12.1,21.7c15.6,26.9,17.9,31.2,17.9,33.6,0,5.2-5.8,10.8-11.1,10.8-1.2,0-6-2.1-10.7-4.6s-8.8-4.2-9.2-3.7-7.4,12.4-15.5,26.6c-10,17.4-15.2,25.7-16.3,25.7S44.2,223.63,41.1,218Zm58.4-46.9c0-1.2-8.3-15.3-9-15.3s-4,6.7-4,8.4c0,.8,2.4,2.8,5.3,4.4C96.9,171.63,99.5,172.53,99.5,171.13Zm-20.1-23.7c1.8-1,3.4-2.3,3.7-3s-2.1-5.8-5.3-11.4L72,122.93l-13.4-.1H45.2l.7,6.2c1,9.5,7,17.1,15.6,19.7C66.2,150.13,75.4,149.43,79.4,147.43Zm-49.1-20.6a26.91,26.91,0,0,0,2.2-4.4c0-.8-13.9-.6-16.8.2-2.1.6-1.6,1.1,4,4.4,3.5,2,6.8,3.7,7.3,3.7S29,129,30.3,126.83Z"/><path class="a" d="M40.1,217c-2.7-4.8-7.5-13.1-10.8-18.4s-5.8-9.9-5.8-10.2a54.44,54.44,0,0,0-4.1-7.2c-9.2-15.1-9.7-20.6-2.9-33.1,2.2-4.1,4-8,4-8.6s-2.7-2.7-5.9-4.4c-10-5.5-12.1-7.8-12.1-13,0-5.5,1.2-7.8,5.3-10,2.8-1.6,6.5-1.8,33.1-1.8,27.1-.1,29.9-.2,31.1-1.8.7-1,4-2.7,7.4-3.8,5.3-1.8,6.2-2.4,5.9-4.3s-1-2.1-4.9-2.1c-4.5-.1-9.9-2.5-9.9-4.5,0-1.7,4.4-5,8.2-6.2,3.1-.9,4.5-.8,8.4.7S92,90.83,94,95c1.8,3.9,2.1,5.7,1.4,8-1.8,6.5-5.5,9.7-12.6,11.3-1.8.3-3.3,1-3.3,1.4s5.5,10.2,12.1,21.7c15.6,26.9,17.9,31.2,17.9,33.6,0,5.2-5.8,10.8-11.1,10.8-1.2,0-6-2.1-10.7-4.6s-8.8-4.2-9.2-3.7-7.4,12.4-15.5,26.6c-10,17.4-15.2,25.7-16.3,25.7S43.2,222.63,40.1,217Zm58.4-46.9c0-1.2-8.3-15.3-9-15.3s-4,6.7-4,8.4c0,.8,2.4,2.8,5.3,4.4C95.9,170.63,98.5,171.53,98.5,170.13Zm-20.1-23.7c1.8-1,3.4-2.3,3.7-3s-2.1-5.8-5.3-11.4L71,121.93l-13.4-.1H44.2l.7,6.2c1,9.5,7,17.1,15.6,19.7C65.2,149.13,74.4,148.43,78.4,146.43Zm-49.1-20.6a26.91,26.91,0,0,0,2.2-4.4c0-.8-13.9-.6-16.8.2-2.1.6-1.6,1.1,4,4.4,3.5,2,6.8,3.7,7.3,3.7S28,128,29.3,125.83Z"/><path class="a" d="M39.1,216c-2.7-4.8-7.5-13.1-10.8-18.4s-5.8-9.9-5.8-10.2a54.44,54.44,0,0,0-4.1-7.2c-9.2-15.1-9.7-20.6-2.9-33.1,2.2-4.1,4-8,4-8.6s-2.7-2.7-5.9-4.4c-10-5.5-12.1-7.8-12.1-13,0-5.5,1.2-7.8,5.3-10,2.8-1.6,6.5-1.8,33.1-1.8,27.1-.1,29.9-.2,31.1-1.8.7-1,4-2.7,7.4-3.8,5.3-1.8,6.2-2.4,5.9-4.3s-1-2.1-4.9-2.1c-4.5-.1-9.9-2.5-9.9-4.5,0-1.7,4.4-5,8.2-6.2,3.1-.9,4.5-.8,8.4.7S91,89.83,93,94c1.8,3.9,2.1,5.7,1.4,8-1.8,6.5-5.5,9.7-12.6,11.3-1.8.3-3.3,1-3.3,1.4s5.5,10.2,12.1,21.7c15.6,26.9,17.9,31.2,17.9,33.6,0,5.2-5.8,10.8-11.1,10.8-1.2,0-6-2.1-10.7-4.6s-8.8-4.2-9.2-3.7-7.4,12.4-15.5,26.6c-10,17.4-15.2,25.7-16.3,25.7S42.2,221.63,39.1,216Zm58.4-46.9c0-1.2-8.3-15.3-9-15.3s-4,6.7-4,8.4c0,.8,2.4,2.8,5.3,4.4C94.9,169.63,97.5,170.53,97.5,169.13Zm-20.1-23.7c1.8-1,3.4-2.3,3.7-3s-2.1-5.8-5.3-11.4L70,120.93l-13.4-.1H43.2l.7,6.2c1,9.5,7,17.1,15.6,19.7C64.2,148.13,73.4,147.43,77.4,145.43Zm-49.1-20.6a26.91,26.91,0,0,0,2.2-4.4c0-.8-13.9-.6-16.8.2-2.1.6-1.6,1.1,4,4.4,3.5,2,6.8,3.7,7.3,3.7S27,127,28.3,124.83Z"/><path class="b" d="M39.1,216c-2.7-4.8-7.5-13.1-10.8-18.4s-5.8-9.9-5.8-10.2a54.44,54.44,0,0,0-4.1-7.2c-9.2-15.1-9.7-20.6-2.9-33.1,2.2-4.1,4-8,4-8.6s-2.7-2.7-5.9-4.4c-10-5.5-12.1-7.8-12.1-13,0-5.5,1.2-7.8,5.3-10,2.8-1.6,6.5-1.8,33.1-1.8,27.1-.1,29.9-.2,31.1-1.8.7-1,4-2.7,7.4-3.8,5.3-1.8,6.2-2.4,5.9-4.3s-1-2.1-4.9-2.1c-4.5-.1-9.9-2.5-9.9-4.5,0-1.7,4.4-5,8.2-6.2,3.1-.9,4.5-.8,8.4.7S91,89.83,93,94c1.8,3.9,2.1,5.7,1.4,8-1.8,6.5-5.5,9.7-12.6,11.3-1.8.3-3.3,1-3.3,1.4s5.5,10.2,12.1,21.7c15.6,26.9,17.9,31.2,17.9,33.6,0,5.2-5.8,10.8-11.1,10.8-1.2,0-6-2.1-10.7-4.6s-8.8-4.2-9.2-3.7-7.4,12.4-15.5,26.6c-10,17.4-15.2,25.7-16.3,25.7S42.2,221.63,39.1,216Zm58.4-46.9c0-1.2-8.3-15.3-9-15.3s-4,6.7-4,8.4c0,.8,2.4,2.8,5.3,4.4C94.9,169.63,97.5,170.53,97.5,169.13Zm-20.1-23.7c1.8-1,3.4-2.3,3.7-3s-2.1-5.8-5.3-11.4L70,120.93l-13.4-.1H43.2l.7,6.2c1,9.5,7,17.1,15.6,19.7C64.2,148.13,73.4,147.43,77.4,145.43Zm-49.1-20.6a26.91,26.91,0,0,0,2.2-4.4c0-.8-13.9-.6-16.8.2-2.1.6-1.6,1.1,4,4.4,3.5,2,6.8,3.7,7.3,3.7S27,127,28.3,124.83Z"/><path class="a" d="M242.8,188c-.7-.4-8.2-12.9-16.8-27.7-12.1-21-15.2-27.2-14.2-28.1.6-.6,4.8-2.1,9.1-3.3,14.4-4.1,25.6-10.6,38.2-22.2,6.3-5.9,7.8-6.9,8.9-5.8,1.7,1.9,23.9,40.3,29.2,50.7,4.6,9,5.2,12.9,2.9,19.5-2.6,7.2-6.7,11.8-13.1,14.9-5.9,2.8-6.2,2.8-24.5,2.8C252.3,188.83,243.4,188.43,242.8,188Z"/><path class="a" d="M241.8,187c-.7-.4-8.2-12.9-16.8-27.7-12.1-21-15.2-27.2-14.2-28.1.6-.6,4.8-2.1,9.1-3.3,14.4-4.1,25.6-10.6,38.2-22.2,6.3-5.9,7.8-6.9,8.9-5.8,1.7,1.9,23.9,40.3,29.2,50.7,4.6,9,5.2,12.9,2.9,19.5-2.6,7.2-6.7,11.8-13.1,14.9-5.9,2.8-6.2,2.8-24.5,2.8C251.3,187.83,242.4,187.43,241.8,187Z"/><path class="a" d="M240.8,186c-.7-.4-8.2-12.9-16.8-27.7-12.1-21-15.2-27.2-14.2-28.1.6-.6,4.8-2.1,9.1-3.3,14.4-4.1,25.6-10.6,38.2-22.2,6.3-5.9,7.8-6.9,8.9-5.8,1.7,1.9,23.9,40.3,29.2,50.7,4.6,9,5.2,12.9,2.9,19.5-2.6,7.2-6.7,11.8-13.1,14.9-5.9,2.8-6.2,2.8-24.5,2.8C250.3,186.83,241.4,186.43,240.8,186Z"/><path class="a" d="M239.8,185c-.7-.4-8.2-12.9-16.8-27.7-12.1-21-15.2-27.2-14.2-28.1.6-.6,4.8-2.1,9.1-3.3,14.4-4.1,25.6-10.6,38.2-22.2,6.3-5.9,7.8-6.9,8.9-5.8,1.7,1.9,23.9,40.3,29.2,50.7,4.6,9,5.2,12.9,2.9,19.5-2.6,7.2-6.7,11.8-13.1,14.9-5.9,2.8-6.2,2.8-24.5,2.8C249.3,185.83,240.4,185.43,239.8,185Z"/><path class="b" d="M239.8,185c-.7-.4-8.2-12.9-16.8-27.7-12.1-21-15.2-27.2-14.2-28.1.6-.6,4.8-2.1,9.1-3.3,14.4-4.1,25.6-10.6,38.2-22.2,6.3-5.9,7.8-6.9,8.9-5.8,1.7,1.9,23.9,40.3,29.2,50.7,4.6,9,5.2,12.9,2.9,19.5-2.6,7.2-6.7,11.8-13.1,14.9-5.9,2.8-6.2,2.8-24.5,2.8C249.3,185.83,240.4,185.43,239.8,185Z"/><path class="a" d="M222.3,110.63c-5.2-3-7.5-8.9-5.9-15.2.6-2.5,1.1-4.7,1.1-5s-13.7-.6-30.4-.8c-29.2-.3-30.6-.4-33.3-2.4a16.28,16.28,0,0,1-4.2-5.7c-1.2-3.2-1.1-4,.5-7.4,1.5-3,3.6-4.8,9.7-8.1,8-4.6,8.9-6,6.2-9.8-.8-1.2-4.9-8.2-9.1-15.5s-10.2-17.9-13.4-23.4c-4.9-8.4-5.6-10.2-4.5-11.4s7.3-1.4,32.7-1.4c30.6-.1,31.4,0,36.6,2.2,5.9,2.6,9.8,6.7,14.3,14.7,1.7,3,3.6,5.4,4.2,5.4s4.6-2.1,8.7-4.5,8.5-4.5,9.8-4.5c4.1,0,8.3,2.9,10.2,7.3l1.8,4.1-2.5,5c-1.4,2.8-7.2,13-12.8,22.6-14,24-14.6,25.2-14.4,30.8a69.58,69.58,0,0,1-.6,10l-.8,5.4,2.9-.4c2.3-.2,3-.9,3.2-3a7.79,7.79,0,0,1,3.2-4.8c5.1-3.6,7-2.3,7,4.6a12.25,12.25,0,0,1-7,11.4C230.5,113.43,226.9,113.33,222.3,110.63Zm-44.8-32.8c0-2.3-3.1-7-4.6-7-1.9,0-12.4,6.1-12.4,7.2,0,.5,3.8.8,8.5.8C174.3,78.83,177.5,78.43,177.5,77.83Zm46-9.2c3.3-5.6,6-10.8,6-11.5,0-1.9-4-4.1-9.8-5.4-14-3-26.6,6.5-27.9,21.1l-.6,6h26.2Zm17.9-30.7c3.9-6.5,4.9-9.1,3.5-9.1a62.55,62.55,0,0,0-6.5,3.3c-3.9,2.1-5.9,3.8-5.9,5,0,2.1,3,7.7,4.1,7.7C237,44.83,239.1,41.73,241.4,37.93Z"/><path class="a" d="M221.3,109.63c-5.2-3-7.5-8.9-5.9-15.2.6-2.5,1.1-4.7,1.1-5s-13.7-.6-30.4-.8c-29.2-.3-30.6-.4-33.3-2.4a16.28,16.28,0,0,1-4.2-5.7c-1.2-3.2-1.1-4,.5-7.4,1.5-3,3.6-4.8,9.7-8.1,8-4.6,8.9-6,6.2-9.8-.8-1.2-4.9-8.2-9.1-15.5s-10.2-17.9-13.4-23.4c-4.9-8.4-5.6-10.2-4.5-11.4s7.3-1.4,32.7-1.4c30.6-.1,31.4,0,36.6,2.2,5.9,2.6,9.8,6.7,14.3,14.7,1.7,3,3.6,5.4,4.2,5.4s4.6-2.1,8.7-4.5,8.5-4.5,9.8-4.5c4.1,0,8.3,2.9,10.2,7.3l1.8,4.1-2.5,5c-1.4,2.8-7.2,13-12.8,22.6-14,24-14.6,25.2-14.4,30.8a69.58,69.58,0,0,1-.6,10l-.8,5.4,2.9-.4c2.3-.2,3-.9,3.2-3a7.79,7.79,0,0,1,3.2-4.8c5.1-3.6,7-2.3,7,4.6a12.25,12.25,0,0,1-7,11.4C229.5,112.43,225.9,112.33,221.3,109.63Zm-44.8-32.8c0-2.3-3.1-7-4.6-7-1.9,0-12.4,6.1-12.4,7.2,0,.5,3.8.8,8.5.8C173.3,77.83,176.5,77.43,176.5,76.83Zm46-9.2c3.3-5.6,6-10.8,6-11.5,0-1.9-4-4.1-9.8-5.4-14-3-26.6,6.5-27.9,21.1l-.6,6h26.2Zm17.9-30.7c3.9-6.5,4.9-9.1,3.5-9.1a62.55,62.55,0,0,0-6.5,3.3c-3.9,2.1-5.9,3.8-5.9,5,0,2.1,3,7.7,4.1,7.7C236,43.83,238.1,40.73,240.4,36.93Z"/><path class="a" d="M220.3,108.63c-5.2-3-7.5-8.9-5.9-15.2.6-2.5,1.1-4.7,1.1-5s-13.7-.6-30.4-.8c-29.2-.3-30.6-.4-33.3-2.4a16.28,16.28,0,0,1-4.2-5.7c-1.2-3.2-1.1-4,.5-7.4,1.5-3,3.6-4.8,9.7-8.1,8-4.6,8.9-6,6.2-9.8-.8-1.2-4.9-8.2-9.1-15.5s-10.2-17.9-13.4-23.4c-4.9-8.4-5.6-10.2-4.5-11.4s7.3-1.4,32.7-1.4c30.6-.1,31.4,0,36.6,2.2,5.9,2.6,9.8,6.7,14.3,14.7,1.7,3,3.6,5.4,4.2,5.4s4.6-2.1,8.7-4.5,8.5-4.5,9.8-4.5c4.1,0,8.3,2.9,10.2,7.3l1.8,4.1-2.5,5c-1.4,2.8-7.2,13-12.8,22.6-14,24-14.6,25.2-14.4,30.8a69.58,69.58,0,0,1-.6,10l-.8,5.4,2.9-.4c2.3-.2,3-.9,3.2-3a7.79,7.79,0,0,1,3.2-4.8c5.1-3.6,7-2.3,7,4.6a12.25,12.25,0,0,1-7,11.4C228.5,111.43,224.9,111.33,220.3,108.63Zm-44.8-32.8c0-2.3-3.1-7-4.6-7-1.9,0-12.4,6.1-12.4,7.2,0,.5,3.8.8,8.5.8C172.3,76.83,175.5,76.43,175.5,75.83Zm46-9.2c3.3-5.6,6-10.8,6-11.5,0-1.9-4-4.1-9.8-5.4-14-3-26.6,6.5-27.9,21.1l-.6,6h26.2Zm17.9-30.7c3.9-6.5,4.9-9.1,3.5-9.1a62.55,62.55,0,0,0-6.5,3.3c-3.9,2.1-5.9,3.8-5.9,5,0,2.1,3,7.7,4.1,7.7C235,42.83,237.1,39.73,239.4,35.93Z"/><path class="a" d="M219.3,107.63c-5.2-3-7.5-8.9-5.9-15.2.6-2.5,1.1-4.7,1.1-5s-13.7-.6-30.4-.8c-29.2-.3-30.6-.4-33.3-2.4a16.28,16.28,0,0,1-4.2-5.7c-1.2-3.2-1.1-4,.5-7.4,1.5-3,3.6-4.8,9.7-8.1,8-4.6,8.9-6,6.2-9.8-.8-1.2-4.9-8.2-9.1-15.5s-10.2-17.9-13.4-23.4c-4.9-8.4-5.6-10.2-4.5-11.4s7.3-1.4,32.7-1.4c30.6-.1,31.4,0,36.6,2.2,5.9,2.6,9.8,6.7,14.3,14.7,1.7,3,3.6,5.4,4.2,5.4s4.6-2.1,8.7-4.5,8.5-4.5,9.8-4.5c4.1,0,8.3,2.9,10.2,7.3l1.8,4.1-2.5,5c-1.4,2.8-7.2,13-12.8,22.6-14,24-14.6,25.2-14.4,30.8a69.58,69.58,0,0,1-.6,10l-.8,5.4,2.9-.4c2.3-.2,3-.9,3.2-3a7.79,7.79,0,0,1,3.2-4.8c5.1-3.6,7-2.3,7,4.6a12.25,12.25,0,0,1-7,11.4C227.5,110.43,223.9,110.33,219.3,107.63Zm-44.8-32.8c0-2.3-3.1-7-4.6-7-1.9,0-12.4,6.1-12.4,7.2,0,.5,3.8.8,8.5.8C171.3,75.83,174.5,75.43,174.5,74.83Zm46-9.2c3.3-5.6,6-10.8,6-11.5,0-1.9-4-4.1-9.8-5.4-14-3-26.6,6.5-27.9,21.1l-.6,6h26.2Zm17.9-30.7c3.9-6.5,4.9-9.1,3.5-9.1a62.55,62.55,0,0,0-6.5,3.3c-3.9,2.1-5.9,3.8-5.9,5,0,2.1,3,7.7,4.1,7.7C234,41.83,236.1,38.73,238.4,34.93Z"/><path class="b" d="M219.3,107.63c-5.2-3-7.5-8.9-5.9-15.2.6-2.5,1.1-4.7,1.1-5s-13.7-.6-30.4-.8c-29.2-.3-30.6-.4-33.3-2.4a16.28,16.28,0,0,1-4.2-5.7c-1.2-3.2-1.1-4,.5-7.4,1.5-3,3.6-4.8,9.7-8.1,8-4.6,8.9-6,6.2-9.8-.8-1.2-4.9-8.2-9.1-15.5s-10.2-17.9-13.4-23.4c-4.9-8.4-5.6-10.2-4.5-11.4s7.3-1.4,32.7-1.4c30.6-.1,31.4,0,36.6,2.2,5.9,2.6,9.8,6.7,14.3,14.7,1.7,3,3.6,5.4,4.2,5.4s4.6-2.1,8.7-4.5,8.5-4.5,9.8-4.5c4.1,0,8.3,2.9,10.2,7.3l1.8,4.1-2.5,5c-1.4,2.8-7.2,13-12.8,22.6-14,24-14.6,25.2-14.4,30.8a69.58,69.58,0,0,1-.6,10l-.8,5.4,2.9-.4c2.3-.2,3-.9,3.2-3a7.79,7.79,0,0,1,3.2-4.8c5.1-3.6,7-2.3,7,4.6a12.25,12.25,0,0,1-7,11.4C227.5,110.43,223.9,110.33,219.3,107.63Zm-44.8-32.8c0-2.3-3.1-7-4.6-7-1.9,0-12.4,6.1-12.4,7.2,0,.5,3.8.8,8.5.8C171.3,75.83,174.5,75.43,174.5,74.83Zm46-9.2c3.3-5.6,6-10.8,6-11.5,0-1.9-4-4.1-9.8-5.4-14-3-26.6,6.5-27.9,21.1l-.6,6h26.2Zm17.9-30.7c3.9-6.5,4.9-9.1,3.5-9.1a62.55,62.55,0,0,0-6.5,3.3c-3.9,2.1-5.9,3.8-5.9,5,0,2.1,3,7.7,4.1,7.7C234,41.83,236.1,38.73,238.4,34.93Z"/><path class="a" d="M115.7,96.63c-12.7-11.9-26.2-19.9-40.4-23.8-4-1.1-7.8-2.6-8.5-3.3-1.3-1.3-1.1-1.7,21.9-41.2,9.3-16,10.8-17.8,17-20.9,9.8-4.9,23.2-2.3,29.2,5.8,1.3,1.7,6.3,9.9,11.1,18.3l8.7,15.2L146,62c-14.8,25.7-22.5,38.7-23.6,39.3C121.9,101.73,118.9,99.53,115.7,96.63Z"/><path class="a" d="M114.7,95.63c-12.7-11.9-26.2-19.9-40.4-23.8-4-1.1-7.8-2.6-8.5-3.3-1.3-1.3-1.1-1.7,21.9-41.2,9.3-16,10.8-17.8,17-20.9,9.8-4.9,23.2-2.3,29.2,5.8,1.3,1.7,6.3,9.9,11.1,18.3l8.7,15.2L145,61c-14.8,25.7-22.5,38.7-23.6,39.3C120.9,100.73,117.9,98.53,114.7,95.63Z"/><path class="a" d="M113.7,94.63c-12.7-11.9-26.2-19.9-40.4-23.8-4-1.1-7.8-2.6-8.5-3.3-1.3-1.3-1.1-1.7,21.9-41.2,9.3-16,10.8-17.8,17-20.9,9.8-4.9,23.2-2.3,29.2,5.8,1.3,1.7,6.3,9.9,11.1,18.3l8.7,15.2L144,60c-14.8,25.7-22.5,38.7-23.6,39.3C119.9,99.73,116.9,97.53,113.7,94.63Z"/><path class="a" d="M112.7,93.63c-12.7-11.9-26.2-19.9-40.4-23.8-4-1.1-7.8-2.6-8.5-3.3-1.3-1.3-1.1-1.7,21.9-41.2,9.3-16,10.8-17.8,17-20.9,9.8-4.9,23.2-2.3,29.2,5.8,1.3,1.7,6.3,9.9,11.1,18.3l8.7,15.2L143,59c-14.8,25.7-22.5,38.7-23.6,39.3C118.9,98.73,115.9,96.53,112.7,93.63Z"/><path class="b" d="M112.7,93.63c-12.7-11.9-26.2-19.9-40.4-23.8-4-1.1-7.8-2.6-8.5-3.3-1.3-1.3-1.1-1.7,21.9-41.2,9.3-16,10.8-17.8,17-20.9,9.8-4.9,23.2-2.3,29.2,5.8,1.3,1.7,6.3,9.9,11.1,18.3l8.7,15.2L143,59c-14.8,25.7-22.5,38.7-23.6,39.3C118.9,98.73,115.9,96.53,112.7,93.63Z"/></svg>