<svg xmlns="http://www.w3.org/2000/svg" xmlns:xlink="http://www.w3.org/1999/xlink" viewBox="0 0 417.33 165.33"><defs><style>.a{fill:url(#a);}.b,.c,.d,.e{font-size:138.86px;font-family:FuturaBT-Heavy, Futura Hv BT;font-weight:800;}.b,.d,.e{fill:none;}.b{stroke:#e2a8fa;stroke-width:0.45px;}.c{fill:#fff;}.d{stroke:#e6e6e6;stroke-width:1.8px;}.e{stroke:#fff;stroke-width:2.53px;}</style><linearGradient id="a" x1="11.28" y1="70.81" x2="405.09" y2="70.81" gradientUnits="userSpaceOnUse"><stop offset="0" stop-color="#ffcbf2"/><stop offset="0" stop-color="#fdc9f3"/><stop offset="0" stop-color="#fdc9f3" stop-opacity="0.98"/><stop offset="0" stop-color="#fdc9f3" stop-opacity="0.94"/><stop offset="0" stop-color="#fdc9f3" stop-opacity="0.86"/><stop offset="0" stop-color="#fdc9f3" stop-opacity="0.74"/><stop offset="0" stop-color="#fdc9f3" stop-opacity="0.6"/><stop offset="0" stop-color="#fdc9f3" stop-opacity="0.42"/><stop offset="0" stop-color="#fdc9f3" stop-opacity="0.22"/><stop offset="0" stop-color="#fdc9f3" stop-opacity="0"/><stop offset="0" stop-color="#fdc9f3" stop-opacity="0.02"/><stop offset="0" stop-color="#fdc9f3" stop-opacity="0.06"/><stop offset="0" stop-color="#fdc9f3" stop-opacity="0.14"/><stop offset="0" stop-color="#fdc9f3" stop-opacity="0.25"/><stop offset="0" stop-color="#fdc9f3" stop-opacity="0.4"/><stop offset="0" stop-color="#fdc9f3" stop-opacity="0.57"/><stop offset="0" stop-color="#fdc9f3" stop-opacity="0.78"/><stop offset="0" stop-color="#fdc9f3"/><stop offset="0.03" stop-color="#fcc9f4" stop-opacity="0.99"/><stop offset="0.06" stop-color="#fac8f5" stop-opacity="0.95"/><stop offset="0.09" stop-color="#f7c6f8" stop-opacity="0.88"/><stop offset="0.12" stop-color="#f3c4fb" stop-opacity="0.8"/><stop offset="0.26" stop-color="#ecbcfd" stop-opacity="0.8"/><stop offset="0.32" stop-color="#e5b3fe" stop-opacity="0.67"/><stop offset="0.36" stop-color="#e2afff" stop-opacity="0.6"/><stop offset="0.48" stop-color="#d8bbff" stop-opacity="0.6"/><stop offset="0.51" stop-color="#d7bfff" stop-opacity="0.67"/><stop offset="0.57" stop-color="#d3c9ff" stop-opacity="0.86"/><stop offset="0.61" stop-color="#d0d1ff"/><stop offset="0.78" stop-color="#c8e7ff" stop-opacity="0.8"/><stop offset="0.8" stop-color="#c7e9ff" stop-opacity="0.83"/><stop offset="0.84" stop-color="#c5efff" stop-opacity="0.9"/><stop offset="0.89" stop-color="#c3f4ff" stop-opacity="0.96"/><stop offset="0.94" stop-color="#c2f6ff" stop-opacity="0.99"/><stop offset="1" stop-color="#c2f7ff"/><stop offset="1" stop-color="#c0fdff" stop-opacity="0.8"/></linearGradient></defs><path class="a" d="M76,120.34H53.93L30.41,73.89v46.45H11.28V21.07H38.65q16.38,0,24.47,7t8.1,21.12a27.87,27.87,0,0,1-5.5,17.43A21.61,21.61,0,0,1,51.3,75.18Zm-45.57-57h2.87q11.55,0,15.3-2.84t3.76-9.73q0-7.31-4-10.38t-15-3.08H30.41Z"/><path class="a" d="M87.1,120.34V21.07h52.66V39H106.22V59.38h33.54v18H106.22V102.3h33.54v18Z"/><path class="a" d="M235.43,21.07V82.8q0,20.13-9.56,30.12t-28.92,10q-19.56,0-29.18-10T158.15,82.8V21.07h19v58.4q0,12.27,4.89,18.46t14.6,6.2q9.72,0,14.75-6.27t5-18.39V21.07Z"/><path class="a" d="M249.49,107.66l10.63-13.29a17.84,17.84,0,0,0,6.5,8.56,17,17,0,0,0,10,3.17q6.72,0,10.63-3.52a12.14,12.14,0,0,0,3.91-9.49q0-7-13-14l-6.66-3.66q-11.61-6.64-16.19-13.21a26.29,26.29,0,0,1-4.58-15.45,25.94,25.94,0,0,1,8.76-20.16q8.77-7.89,22.76-7.89a35,35,0,0,1,7.55.75,23.5,23.5,0,0,1,6.44,2.44,28.38,28.38,0,0,1,10.45,9.83l-11.3,12A15,15,0,0,0,290,37.31a14.4,14.4,0,0,0-8-2.2,13.2,13.2,0,0,0-9.2,3.12,10.5,10.5,0,0,0-3.45,8.19q0,7.8,13.81,14.37l4.21,2q11.25,5.62,16.77,12.94a26.8,26.8,0,0,1,5.53,16.6q0,13.81-8.58,22.19T278,122.91q-10.33,0-17.6-3.9A25.07,25.07,0,0,1,249.49,107.66Z"/><path class="a" d="M314.67,120.34l34-99.27h21.87l34.52,99.27H383.34l-7.27-21.09H341.43l-6.23,21.09Zm56.94-37.77-10-32.07-1.1-4.88-1.4-8.48c-.53,3.39-1,6.29-1.53,8.68l-1.1,5.09-9.65,31.66Z"/><text class="b" transform="translate(13.28 132.35) scale(0.9 1)">REUSA</text><text class="b" transform="translate(12.68 131.75) scale(0.9 1)">REUSA</text><text class="b" transform="translate(12.08 131.15) scale(0.9 1)">REUSA</text><text class="b" transform="translate(11.48 130.55) scale(0.9 1)">REUSA</text><text class="b" transform="translate(10.88 129.95) scale(0.9 1)">REUSA</text><text class="b" transform="translate(10.28 129.35) scale(0.9 1)">REUSA</text><text class="b" transform="translate(9.68 128.75) scale(0.9 1)">REUSA</text><text class="b" transform="translate(9.08 128.15) scale(0.9 1)">REUSA</text><text class="b" transform="translate(8.48 127.55) scale(0.9 1)">REUSA</text><text class="b" transform="translate(7.87 126.94) scale(0.9 1)">REUSA</text><text class="b" transform="translate(7.27 126.34) scale(0.9 1)">REUSA</text><text class="b" transform="translate(6.67 125.74) scale(0.9 1)">REUSA</text><text class="b" transform="translate(6.07 125.14) scale(0.9 1)">REUSA</text><text class="b" transform="translate(5.47 124.54) scale(0.9 1)">REUSA</text><text class="b" transform="translate(4.87 123.94) scale(0.9 1)">REUSA</text><text class="b" transform="translate(4.27 123.34) scale(0.9 1)">REUSA</text><text class="b" transform="translate(3.67 122.74) scale(0.9 1)">REUSA</text><text class="b" transform="translate(3.07 122.14) scale(0.9 1)">REUSA</text><text class="b" transform="translate(2.47 121.54) scale(0.9 1)">REUSA</text><text class="b" transform="translate(1.87 120.94) scale(0.9 1)">REUSA</text><text class="b" transform="translate(1.27 120.34) scale(0.9 1)">REUSA</text><text class="c" transform="translate(1.27 120.34) scale(0.9 1)">REUSA</text><text class="d" transform="translate(7.27 126.34) scale(0.9 1)">REUSA</text><text class="d" transform="translate(6.67 125.74) scale(0.9 1)">REUSA</text><text class="d" transform="translate(6.07 125.14) scale(0.9 1)">REUSA</text><text class="d" transform="translate(5.47 124.54) scale(0.9 1)">REUSA</text><text class="d" transform="translate(4.87 123.94) scale(0.9 1)">REUSA</text><text class="d" transform="translate(4.27 123.34) scale(0.9 1)">REUSA</text><text class="d" transform="translate(3.67 122.74) scale(0.9 1)">REUSA</text><text class="d" transform="translate(3.07 122.14) scale(0.9 1)">REUSA</text><text class="d" transform="translate(2.47 121.54) scale(0.9 1)">REUSA</text><text class="d" transform="translate(1.87 120.94) scale(0.9 1)">REUSA</text><text class="d" transform="translate(1.27 120.34) scale(0.9 1)">REUSA</text><text class="e" transform="translate(1.27 120.34) scale(0.9 1)">REUSA</text></svg>