<svg xmlns="http://www.w3.org/2000/svg" xmlns:xlink="http://www.w3.org/1999/xlink" viewBox="0 0 118.75 113.02"><defs><style>.a,.c{fill:none;stroke-width:1.18px;}.a{stroke:#e6e6e6;}.b{fill:url(#a);}.c{stroke:#fff;}.d{fill:url(#b);}.e{fill:url(#c);}.f{fill:url(#d);}.g{fill:url(#e);}.h{fill:url(#f);}</style><linearGradient id="a" x1="55.87" y1="87.61" x2="111" y2="87.61" gradientUnits="userSpaceOnUse"><stop offset="0" stop-color="#ffcbf2"/><stop offset="0" stop-color="#fdc9f3"/><stop offset="0" stop-color="#fdc9f3" stop-opacity="0.98"/><stop offset="0" stop-color="#fdc9f3" stop-opacity="0.94"/><stop offset="0" stop-color="#fdc9f3" stop-opacity="0.86"/><stop offset="0" stop-color="#fdc9f3" stop-opacity="0.74"/><stop offset="0" stop-color="#fdc9f3" stop-opacity="0.6"/><stop offset="0" stop-color="#fdc9f3" stop-opacity="0.42"/><stop offset="0" stop-color="#fdc9f3" stop-opacity="0.22"/><stop offset="0" stop-color="#fdc9f3" stop-opacity="0"/><stop offset="0" stop-color="#fdc9f3" stop-opacity="0.02"/><stop offset="0" stop-color="#fdc9f3" stop-opacity="0.06"/><stop offset="0" stop-color="#fdc9f3" stop-opacity="0.14"/><stop offset="0" stop-color="#fdc9f3" stop-opacity="0.25"/><stop offset="0" stop-color="#fdc9f3" stop-opacity="0.4"/><stop offset="0" stop-color="#fdc9f3" stop-opacity="0.57"/><stop offset="0" stop-color="#fdc9f3" stop-opacity="0.78"/><stop offset="0" stop-color="#fdc9f3" stop-opacity="0.8"/><stop offset="0.05" stop-color="#fcc9f3" stop-opacity="0.79"/><stop offset="0.07" stop-color="#fac8f5" stop-opacity="0.77"/><stop offset="0.09" stop-color="#f7c6f8" stop-opacity="0.74"/><stop offset="0.1" stop-color="#f3c4fb" stop-opacity="0.7"/><stop offset="0.17" stop-color="#f3c3fb" stop-opacity="0.71"/><stop offset="0.2" stop-color="#f1c1fc" stop-opacity="0.73"/><stop offset="0.22" stop-color="#eebefd" stop-opacity="0.78"/><stop offset="0.23" stop-color="#ecbcfd" stop-opacity="0.8"/><stop offset="0.28" stop-color="#ecbcfd" stop-opacity="0.79"/><stop offset="0.3" stop-color="#eabafd" stop-opacity="0.77"/><stop offset="0.32" stop-color="#e8b7fe" stop-opacity="0.72"/><stop offset="0.33" stop-color="#e5b3fe" stop-opacity="0.66"/><stop offset="0.33" stop-color="#e2afff" stop-opacity="0.6"/><stop offset="0.46" stop-color="#d9baff" stop-opacity="0.6"/><stop offset="0.47" stop-color="#d8bbff" stop-opacity="0.6"/><stop offset="0.51" stop-color="#d5c2ff" stop-opacity="0.67"/><stop offset="0.56" stop-color="#d2caff" stop-opacity="0.74"/><stop offset="0.62" stop-color="#d1cfff" stop-opacity="0.78"/><stop offset="0.67" stop-color="#d0d1ff" stop-opacity="0.8"/><stop offset="0.67" stop-color="#cfd3ff" stop-opacity="0.81"/><stop offset="0.69" stop-color="#ccdcff" stop-opacity="0.85"/><stop offset="0.71" stop-color="#cae2ff" stop-opacity="0.88"/><stop offset="0.75" stop-color="#c8e6ff" stop-opacity="0.9"/><stop offset="0.84" stop-color="#c8e7ff" stop-opacity="0.9"/><stop offset="0.84" stop-color="#c8e8ff" stop-opacity="0.91"/><stop offset="0.86" stop-color="#c5efff" stop-opacity="0.95"/><stop offset="0.88" stop-color="#c3f3ff" stop-opacity="0.98"/><stop offset="0.91" stop-color="#c2f6ff"/><stop offset="1" stop-color="#c2f7ff"/><stop offset="1" stop-color="#c1f9ff" stop-opacity="0.95"/><stop offset="1" stop-color="#c1fbff" stop-opacity="0.88"/><stop offset="1" stop-color="#c0fcff" stop-opacity="0.83"/><stop offset="1" stop-color="#c0fdff" stop-opacity="0.81"/><stop offset="1" stop-color="#c0fdff" stop-opacity="0.8"/></linearGradient><linearGradient id="b" x1="20.32" y1="87.73" x2="53.68" y2="87.73" xlink:href="#a"/><linearGradient id="c" x1="0.59" y1="60.94" x2="42.54" y2="60.94" xlink:href="#a"/><linearGradient id="d" x1="81.79" y1="55.54" x2="116.99" y2="55.54" xlink:href="#a"/><linearGradient id="e" x1="53.14" y1="21.8" x2="99.7" y2="21.8" xlink:href="#a"/><linearGradient id="f" x1="24.84" y1="19.67" x2="59.47" y2="19.67" xlink:href="#a"/></defs><path class="a" d="M80.6,111.39c-.94-.9-6.74-10.55-11.09-18.39-.82-1.53-1.37-2.08-2.28-2.23a7.72,7.72,0,0,1-2.66-1.65c-1.84-1.65-3.22-1.84-3.22-.47a2.64,2.64,0,0,0,.79,1.65,2.43,2.43,0,0,1,.19,3.33c-.51.39-.9.39-2.11-.2A5.88,5.88,0,0,1,57,88.65c0-1.76,1.69-3.88,3.69-4.63,2.19-.86,3.92-.35,5.88,1.69.78.78,1.49,1.33,1.57,1.22S71,82.26,74.1,76.77s6-10.19,6.15-10.47A4.88,4.88,0,0,1,82,65.36a3.18,3.18,0,0,1,2.83.24c2.23,1,2.78,2.23,2.78,6.43V75.6H99.77c10,0,12.24.11,12.39.54.12.28-.78,2.28-2,4.39-7.13,12.39-9.8,16.94-10.5,18-1.26,1.76-5.06,3.37-7.88,3.37-4.2,0-4.12-.08-4.12,4.08,0,4-.39,4.9-2.35,5.92A3.82,3.82,0,0,1,80.6,111.39ZM83.31,105v-3.14h-2a4.86,4.86,0,0,0-2,.2c0,.15,1.29,2.35,3,5.21a2.48,2.48,0,0,0,.7.86A12,12,0,0,0,83.31,105Zm-3.1-9.76A8.81,8.81,0,0,0,82.49,86c-.51-1.88-4.24-5.84-5.3-5.6-.66.12-5.21,7.49-5.25,8.47a29.23,29.23,0,0,0,2.27,4.43C76.92,98,77.43,98.14,80.21,95.24Zm3.1-22.59A7.46,7.46,0,0,0,83,69.71c-.35,0-3.21,4.87-3.21,5.49,0,.2.78.4,1.76.4h1.77Z"/><path class="a" d="M80.21,111c-.94-.91-6.74-10.55-11.09-18.39-.83-1.53-1.38-2.08-2.28-2.23a7.72,7.72,0,0,1-2.66-1.65C62.33,87.08,61,86.89,61,88.26a2.59,2.59,0,0,0,.79,1.64,2.45,2.45,0,0,1,.19,3.34c-.51.39-.9.39-2.11-.2a5.88,5.88,0,0,1-3.18-4.78c0-1.77,1.69-3.88,3.68-4.63,2.2-.86,3.93-.35,5.89,1.69.78.78,1.49,1.33,1.56,1.21s2.79-4.66,5.92-10.15,6-10.19,6.16-10.47A4.79,4.79,0,0,1,81.62,65a3.18,3.18,0,0,1,2.83.24c2.23,1,2.78,2.23,2.78,6.43V75.2H99.38c10,0,12.23.12,12.39.55.12.28-.78,2.28-2,4.39-7.13,12.39-9.8,16.94-10.5,18-1.26,1.76-5.06,3.37-7.88,3.37-4.2,0-4.12-.08-4.12,4.08,0,4-.39,4.9-2.35,5.92A3.82,3.82,0,0,1,80.21,111Zm2.71-6.39v-3.14H81a4.86,4.86,0,0,0-2,.2c0,.15,1.29,2.35,3,5.21a2.58,2.58,0,0,0,.71.86A12,12,0,0,0,82.92,104.61Zm-3.1-9.77a8.76,8.76,0,0,0,2.27-9.25c-.51-1.88-4.23-5.84-5.29-5.6-.67.11-5.21,7.48-5.25,8.46a28.26,28.26,0,0,0,2.27,4.43C76.53,97.59,77,97.75,79.82,94.84Zm3.1-22.58a7.46,7.46,0,0,0-.32-2.94c-.35,0-3.21,4.86-3.21,5.49,0,.2.78.39,1.76.39h1.77Z"/><path class="a" d="M79.82,110.6c-.94-.9-6.74-10.54-11.1-18.38-.82-1.53-1.37-2.08-2.27-2.24a7.55,7.55,0,0,1-2.67-1.64c-1.84-1.65-3.21-1.85-3.21-.47a2.58,2.58,0,0,0,.78,1.64,2.43,2.43,0,0,1,.2,3.33c-.51.4-.9.4-2.12-.19a5.91,5.91,0,0,1-3.17-4.78c0-1.77,1.68-3.89,3.68-4.63,2.2-.86,3.92-.35,5.88,1.69.79.78,1.49,1.33,1.57,1.21S70.18,81.48,73.31,76s6-10.2,6.16-10.47a4.65,4.65,0,0,1,1.76-.94,3.19,3.19,0,0,1,2.82.23c2.24,1,2.79,2.24,2.79,6.43v3.57H99c10,0,12.23.12,12.39.55.12.27-.79,2.27-2,4.39-7.14,12.39-9.8,16.94-10.51,18-1.25,1.76-5,3.37-7.88,3.37-4.19,0-4.11-.08-4.11,4.07,0,4-.4,4.91-2.36,5.92A3.78,3.78,0,0,1,79.82,110.6Zm2.7-6.39v-3.13h-2a5.23,5.23,0,0,0-2,.19c0,.16,1.3,2.36,3,5.22a2.58,2.58,0,0,0,.71.86A12.29,12.29,0,0,0,82.52,104.21Zm-3.09-9.76A8.78,8.78,0,0,0,81.7,85.2c-.51-1.88-4.23-5.84-5.29-5.61-.67.12-5.22,7.49-5.25,8.47a27.32,27.32,0,0,0,2.27,4.43C76.13,97.2,76.64,97.35,79.43,94.45Zm3.09-22.58a7.53,7.53,0,0,0-.31-2.94c-.35,0-3.21,4.86-3.21,5.49,0,.2.78.39,1.76.39h1.76Z"/><path class="a" d="M79.43,110.21c-.94-.9-6.75-10.54-11.1-18.38-.82-1.53-1.37-2.08-2.27-2.24a7.6,7.6,0,0,1-2.67-1.65c-1.84-1.64-3.21-1.84-3.21-.47A2.6,2.6,0,0,0,61,89.12a2.44,2.44,0,0,1,.2,3.33c-.51.39-.9.39-2.12-.19a5.91,5.91,0,0,1-3.17-4.79c0-1.76,1.68-3.88,3.68-4.62,2.2-.86,3.92-.35,5.88,1.68.79.79,1.49,1.34,1.57,1.22s2.78-4.67,5.92-10.15,6-10.2,6.15-10.47a4.57,4.57,0,0,1,1.77-.94,3.13,3.13,0,0,1,2.82.23c2.24,1,2.78,2.24,2.78,6.43v3.57H98.6c10,0,12.23.12,12.39.55.11.27-.79,2.27-2,4.39-7.14,12.39-9.8,16.93-10.51,18-1.25,1.77-5.06,3.38-7.88,3.38-4.19,0-4.12-.08-4.12,4.07,0,4-.39,4.9-2.35,5.92A3.79,3.79,0,0,1,79.43,110.21Zm2.7-6.39v-3.13h-2a5,5,0,0,0-2,.19c0,.16,1.3,2.35,3,5.22a2.58,2.58,0,0,0,.71.86A12.86,12.86,0,0,0,82.13,103.82ZM79,94.06a8.79,8.79,0,0,0,2.27-9.25C80.8,82.93,77.08,79,76,79.2c-.67.12-5.22,7.49-5.26,8.47A28.72,28.72,0,0,0,73,92.1C75.74,96.8,76.25,97,79,94.06Zm3.09-22.58a7.53,7.53,0,0,0-.31-2.94c-.35,0-3.22,4.86-3.22,5.49,0,.19.79.39,1.77.39h1.76Z"/><path class="b" d="M79.43,110.21c-.94-.9-6.75-10.54-11.1-18.38-.82-1.53-1.37-2.08-2.27-2.24a7.6,7.6,0,0,1-2.67-1.65c-1.84-1.64-3.21-1.84-3.21-.47A2.6,2.6,0,0,0,61,89.12a2.44,2.44,0,0,1,.2,3.33c-.51.39-.9.39-2.12-.19a5.91,5.91,0,0,1-3.17-4.79c0-1.76,1.68-3.88,3.68-4.62,2.2-.86,3.92-.35,5.88,1.68.79.79,1.49,1.34,1.57,1.22s2.78-4.67,5.92-10.15,6-10.2,6.15-10.47a4.57,4.57,0,0,1,1.77-.94,3.13,3.13,0,0,1,2.82.23c2.24,1,2.78,2.24,2.78,6.43v3.57H98.6c10,0,12.23.12,12.39.55.11.27-.79,2.27-2,4.39-7.14,12.39-9.8,16.93-10.51,18-1.25,1.77-5.06,3.38-7.88,3.38-4.19,0-4.12-.08-4.12,4.07,0,4-.39,4.9-2.35,5.92A3.79,3.79,0,0,1,79.43,110.21Zm2.7-6.39v-3.13h-2a5,5,0,0,0-2,.19c0,.16,1.3,2.35,3,5.22a2.58,2.58,0,0,0,.71.86A12.86,12.86,0,0,0,82.13,103.82ZM79,94.06a8.79,8.79,0,0,0,2.27-9.25C80.8,82.93,77.08,79,76,79.2c-.67.12-5.22,7.49-5.26,8.47A28.72,28.72,0,0,0,73,92.1C75.74,96.8,76.25,97,79,94.06Zm3.09-22.58a7.53,7.53,0,0,0-.31-2.94c-.35,0-3.22,4.86-3.22,5.49,0,.19.79.39,1.77.39h1.76Z"/><path class="c" d="M79.43,110.21c-.94-.9-6.75-10.54-11.1-18.38-.82-1.53-1.37-2.08-2.27-2.24a7.6,7.6,0,0,1-2.67-1.65c-1.84-1.64-3.21-1.84-3.21-.47A2.6,2.6,0,0,0,61,89.12a2.44,2.44,0,0,1,.2,3.33c-.51.39-.9.39-2.12-.19a5.91,5.91,0,0,1-3.17-4.79c0-1.76,1.68-3.88,3.68-4.62,2.2-.86,3.92-.35,5.88,1.68.79.79,1.49,1.34,1.57,1.22s2.78-4.67,5.92-10.15,6-10.2,6.15-10.47a4.57,4.57,0,0,1,1.77-.94,3.13,3.13,0,0,1,2.82.23c2.24,1,2.78,2.24,2.78,6.43v3.57H98.6c10,0,12.23.12,12.39.55.11.27-.79,2.27-2,4.39-7.14,12.39-9.8,16.93-10.51,18-1.25,1.77-5.06,3.38-7.88,3.38-4.19,0-4.12-.08-4.12,4.07,0,4-.39,4.9-2.35,5.92A3.79,3.79,0,0,1,79.43,110.21Zm2.7-6.39v-3.13h-2a5,5,0,0,0-2,.19c0,.16,1.3,2.35,3,5.22a2.58,2.58,0,0,0,.71.86A12.86,12.86,0,0,0,82.13,103.82ZM79,94.06a8.79,8.79,0,0,0,2.27-9.25C80.8,82.93,77.08,79,76,79.2c-.67.12-5.22,7.49-5.26,8.47A28.72,28.72,0,0,0,73,92.1C75.74,96.8,76.25,97,79,94.06Zm3.09-22.58a7.53,7.53,0,0,0-.31-2.94c-.35,0-3.22,4.86-3.22,5.49,0,.19.79.39,1.77.39h1.76Z"/><path class="a" d="M30.78,101.86c-4.67-.47-7.57-2.9-8.86-7.37a5.92,5.92,0,0,1-.16-3.92c.43-1.68,6.39-12.66,7.76-14.27.55-.63,1.65-.7,12.62-.7,7.73,0,12.16.15,12.39.39s.2,1.41-.27,3.64a43.06,43.06,0,0,0,.23,19.64c.43,1.42.47,2.08.16,2.47s-2.59.51-10.9.47C38,102.18,32.19,102,30.78,101.86Z"/><path class="a" d="M30.38,101.47c-4.66-.47-7.56-2.9-8.86-7.37a5.85,5.85,0,0,1-.15-3.92c.43-1.69,6.39-12.66,7.76-14.27.55-.63,1.65-.71,12.62-.71,7.73,0,12.16.16,12.39.4s.2,1.41-.27,3.64c-1.45,6.47-1.34,14.19.23,19.64.43,1.41.47,2.08.16,2.47s-2.59.51-10.9.47C37.64,101.78,31.79,101.63,30.38,101.47Z"/><path class="a" d="M30,101.08c-4.66-.47-7.57-2.9-8.86-7.37A5.92,5.92,0,0,1,21,89.79c.44-1.69,6.39-12.67,7.77-14.27.55-.63,1.64-.71,12.62-.71,7.72,0,12.15.16,12.39.39s.19,1.41-.28,3.65a42.92,42.92,0,0,0,.24,19.64c.43,1.41.47,2.08.16,2.47s-2.59.51-10.9.47C37.24,101.39,31.4,101.23,30,101.08Z"/><path class="a" d="M29.6,100.69c-4.67-.47-7.57-2.91-8.86-7.37a6,6,0,0,1-.16-3.93C21,87.71,27,76.73,28.34,75.12c.55-.62,1.65-.7,12.63-.7,7.72,0,12.15.16,12.39.39s.19,1.41-.28,3.65a42.92,42.92,0,0,0,.24,19.64c.43,1.41.47,2.08.15,2.47s-2.58.51-10.89.47C36.85,101,31,100.84,29.6,100.69Z"/><path class="d" d="M29.6,100.69c-4.67-.47-7.57-2.91-8.86-7.37a6,6,0,0,1-.16-3.93C21,87.71,27,76.73,28.34,75.12c.55-.62,1.65-.7,12.63-.7,7.72,0,12.15.16,12.39.39s.19,1.41-.28,3.65a42.92,42.92,0,0,0,.24,19.64c.43,1.41.47,2.08.15,2.47s-2.58.51-10.89.47C36.85,101,31,100.84,29.6,100.69Z"/><path class="c" d="M29.6,100.69c-4.67-.47-7.57-2.91-8.86-7.37a6,6,0,0,1-.16-3.93C21,87.71,27,76.73,28.34,75.12c.55-.62,1.65-.7,12.63-.7,7.72,0,12.15.16,12.39.39s.19,1.41-.28,3.65a42.92,42.92,0,0,0,.24,19.64c.43,1.41.47,2.08.15,2.47s-2.58.51-10.89.47C36.85,101,31,100.84,29.6,100.69Z"/><path class="a" d="M16.5,85.87c-1.05-1.89-2.94-5.14-4.23-7.22S10,74.77,10,74.65a22.29,22.29,0,0,0-1.61-2.82c-3.61-5.92-3.8-8.07-1.14-13a19.61,19.61,0,0,0,1.57-3.38c0-.27-1.06-1.06-2.31-1.72-3.92-2.16-4.75-3.06-4.75-5.1s.47-3.06,2.08-3.92c1.1-.63,2.55-.7,13-.7C27.44,44,28.54,44,29,43.33a7.68,7.68,0,0,1,2.9-1.49c2.08-.71,2.43-.94,2.32-1.69s-.4-.82-1.93-.82c-1.76,0-3.88-1-3.88-1.76s1.73-2,3.22-2.43a4.09,4.09,0,0,1,3.29.27A4,4,0,0,1,37.64,38c.7,1.53.82,2.23.54,3.13C37.48,43.72,36,45,33.24,45.6c-.7.12-1.29.4-1.29.55s2.16,4,4.74,8.51c6.12,10.55,7,12.23,7,13.17a4.77,4.77,0,0,1-4.35,4.24,18.14,18.14,0,0,1-4.19-1.81c-1.81-1-3.45-1.64-3.61-1.45s-2.9,4.86-6.08,10.43c-3.92,6.82-6,10.08-6.39,10.08S17.72,88.06,16.5,85.87ZM39.4,67.48a33.74,33.74,0,0,0-3.53-6c-.31,0-1.57,2.63-1.57,3.29,0,.32.94,1.1,2.08,1.73C38.38,67.68,39.4,68,39.4,67.48Zm-7.88-9.29A3.94,3.94,0,0,0,33,57c.12-.27-.82-2.27-2.08-4.47l-2.27-4-5.25,0H18.11L18.39,51A8.8,8.8,0,0,0,24.5,58.7,12.51,12.51,0,0,0,31.52,58.19ZM12.27,50.11a10.29,10.29,0,0,0,.86-1.72c0-.32-5.45-.24-6.58.08-.83.23-.63.43,1.57,1.72A17.47,17.47,0,0,0,11,51.64C11.21,51.68,11.76,51,12.27,50.11Z"/><path class="a" d="M16.11,85.47c-1.06-1.88-2.94-5.13-4.23-7.21s-2.28-3.88-2.28-4A20.86,20.86,0,0,0,8,71.44c-3.61-5.92-3.81-8.08-1.14-13a20.17,20.17,0,0,0,1.57-3.37c0-.27-1.06-1.06-2.31-1.72-3.92-2.16-4.75-3.06-4.75-5.1s.47-3.06,2.08-3.92c1.1-.63,2.55-.71,13-.71,10.62,0,11.72-.07,12.19-.7a7.6,7.6,0,0,1,2.9-1.49c2.08-.71,2.43-.94,2.31-1.69s-.39-.82-1.92-.82c-1.76,0-3.88-1-3.88-1.76s1.73-2,3.22-2.44a4.14,4.14,0,0,1,3.29.28,3.93,3.93,0,0,1,2.7,2.63c.71,1.52.83,2.23.55,3.13-.7,2.55-2.15,3.8-4.94,4.43-.7.12-1.29.39-1.29.55s2.16,4,4.74,8.51c6.12,10.54,7,12.23,7,13.17A4.76,4.76,0,0,1,39,71.67a18.13,18.13,0,0,1-4.2-1.8c-1.8-1-3.45-1.65-3.6-1.45s-2.9,4.86-6.08,10.43c-3.92,6.82-6,10.07-6.39,10.07S17.33,87.67,16.11,85.47ZM39,67.09a34.35,34.35,0,0,0-3.53-6c-.31,0-1.57,2.63-1.57,3.29,0,.32.94,1.1,2.08,1.73C38,67.28,39,67.64,39,67.09ZM31.13,57.8a4.25,4.25,0,0,0,1.45-1.18c.12-.27-.82-2.27-2.08-4.47l-2.27-4-5.26,0H17.72L18,50.58a8.83,8.83,0,0,0,6.12,7.73A12.52,12.52,0,0,0,31.13,57.8ZM11.88,49.72A10.71,10.71,0,0,0,12.74,48c0-.32-5.45-.24-6.58.07-.83.24-.63.44,1.56,1.73a18.79,18.79,0,0,0,2.87,1.45C10.82,51.29,11.37,50.58,11.88,49.72Z"/><path class="a" d="M15.72,85.08c-1.06-1.88-2.94-5.13-4.23-7.21s-2.28-3.88-2.28-4a20.86,20.86,0,0,0-1.6-2.82C4,65.13,3.8,63,6.47,58.07A21,21,0,0,0,8,54.7C8,54.42,7,53.64,5.72,53,1.8,50.82,1,49.92,1,47.88S1.45,44.82,3.06,44c1.1-.63,2.55-.71,13-.71,10.63,0,11.73-.08,12.2-.7a7.46,7.46,0,0,1,2.9-1.49c2.08-.71,2.43-.94,2.31-1.69s-.39-.82-1.92-.82c-1.76,0-3.88-1-3.88-1.77s1.72-2,3.21-2.43a4.16,4.16,0,0,1,3.3.28,3.93,3.93,0,0,1,2.7,2.62c.71,1.53.83,2.24.55,3.14-.71,2.55-2.16,3.8-4.94,4.43-.7.12-1.29.39-1.29.55s2.15,4,4.74,8.51c6.12,10.54,7,12.23,7,13.17a4.77,4.77,0,0,1-4.35,4.23,18,18,0,0,1-4.2-1.8c-1.8-1-3.45-1.65-3.6-1.45s-2.91,4.86-6.08,10.43c-3.92,6.82-6,10.07-6.39,10.07S16.94,87.28,15.72,85.08ZM38.62,66.7a34.35,34.35,0,0,0-3.53-6c-.32,0-1.57,2.62-1.57,3.29,0,.31.94,1.1,2.08,1.73C37.6,66.89,38.62,67.24,38.62,66.7Zm-7.88-9.3a4.14,4.14,0,0,0,1.45-1.17c.11-.28-.83-2.28-2.08-4.47l-2.28-4-5.25,0H17.33l.27,2.43a8.8,8.8,0,0,0,6.12,7.72A12.43,12.43,0,0,0,30.74,57.4ZM11.49,49.33a10.21,10.21,0,0,0,.86-1.73c0-.31-5.45-.23-6.59.08-.82.24-.62.43,1.57,1.73a18.9,18.9,0,0,0,2.86,1.45C10.43,50.9,11,50.19,11.49,49.33Z"/><path class="a" d="M15.33,84.69c-1.06-1.88-2.94-5.14-4.24-7.21s-2.27-3.88-2.27-4a20.29,20.29,0,0,0-1.61-2.82c-3.6-5.92-3.8-8.08-1.13-13a20.52,20.52,0,0,0,1.56-3.37c0-.28-1-1.06-2.31-1.73C1.41,50.43.59,49.52.59,47.49s.47-3.06,2.08-3.92c1.09-.63,2.54-.71,13-.71,10.63,0,11.72-.08,12.19-.71a7.81,7.81,0,0,1,2.91-1.49c2.07-.7,2.43-.94,2.31-1.68s-.39-.82-1.92-.82c-1.77,0-3.88-1-3.88-1.77s1.72-2,3.21-2.43a4.17,4.17,0,0,1,3.29.27,4,4,0,0,1,2.71,2.63c.71,1.53.82,2.24.55,3.14-.71,2.55-2.16,3.8-4.94,4.43-.71.12-1.29.39-1.29.55s2.15,4,4.74,8.5c6.11,10.55,7,12.24,7,13.18a4.77,4.77,0,0,1-4.36,4.23A17.94,17.94,0,0,1,34,69.09c-1.8-1-3.45-1.65-3.61-1.45s-2.9,4.86-6.07,10.43c-3.92,6.82-6,10.07-6.39,10.07S16.54,86.89,15.33,84.69ZM38.22,66.3a34.23,34.23,0,0,0-3.52-6c-.32,0-1.57,2.62-1.57,3.29,0,.31.94,1.1,2.08,1.72C37.2,66.5,38.22,66.85,38.22,66.3ZM30.34,57a4,4,0,0,0,1.45-1.17c.12-.28-.82-2.28-2.07-4.47l-2.28-4-5.25,0H16.94l.27,2.43a8.8,8.8,0,0,0,6.12,7.72A12.39,12.39,0,0,0,30.34,57ZM11.09,48.94A10.17,10.17,0,0,0,12,47.21c0-.31-5.45-.23-6.59.08-.82.24-.63.43,1.57,1.72A17.92,17.92,0,0,0,9.8,50.47C10,50.5,10.59,49.8,11.09,48.94Z"/><path class="e" d="M15.33,84.69c-1.06-1.88-2.94-5.14-4.24-7.21s-2.27-3.88-2.27-4a20.29,20.29,0,0,0-1.61-2.82c-3.6-5.92-3.8-8.08-1.13-13a20.52,20.52,0,0,0,1.56-3.37c0-.28-1-1.06-2.31-1.73C1.41,50.43.59,49.52.59,47.49s.47-3.06,2.08-3.92c1.09-.63,2.54-.71,13-.71,10.63,0,11.72-.08,12.19-.71a7.81,7.81,0,0,1,2.91-1.49c2.07-.7,2.43-.94,2.31-1.68s-.39-.82-1.92-.82c-1.77,0-3.88-1-3.88-1.77s1.72-2,3.21-2.43a4.17,4.17,0,0,1,3.29.27,4,4,0,0,1,2.71,2.63c.71,1.53.82,2.24.55,3.14-.71,2.55-2.16,3.8-4.94,4.43-.71.12-1.29.39-1.29.55s2.15,4,4.74,8.5c6.11,10.55,7,12.24,7,13.18a4.77,4.77,0,0,1-4.36,4.23A17.94,17.94,0,0,1,34,69.09c-1.8-1-3.45-1.65-3.61-1.45s-2.9,4.86-6.07,10.43c-3.92,6.82-6,10.07-6.39,10.07S16.54,86.89,15.33,84.69ZM38.22,66.3a34.23,34.23,0,0,0-3.52-6c-.32,0-1.57,2.62-1.57,3.29,0,.31.94,1.1,2.08,1.72C37.2,66.5,38.22,66.85,38.22,66.3ZM30.34,57a4,4,0,0,0,1.45-1.17c.12-.28-.82-2.28-2.07-4.47l-2.28-4-5.25,0H16.94l.27,2.43a8.8,8.8,0,0,0,6.12,7.72A12.39,12.39,0,0,0,30.34,57ZM11.09,48.94A10.17,10.17,0,0,0,12,47.21c0-.31-5.45-.23-6.59.08-.82.24-.63.43,1.57,1.72A17.92,17.92,0,0,0,9.8,50.47C10,50.5,10.59,49.8,11.09,48.94Z"/><path class="c" d="M15.33,84.69c-1.06-1.88-2.94-5.14-4.24-7.21s-2.27-3.88-2.27-4a20.29,20.29,0,0,0-1.61-2.82c-3.6-5.92-3.8-8.08-1.13-13a20.52,20.52,0,0,0,1.56-3.37c0-.28-1-1.06-2.31-1.73C1.41,50.43.59,49.52.59,47.49s.47-3.06,2.08-3.92c1.09-.63,2.54-.71,13-.71,10.63,0,11.72-.08,12.19-.71a7.81,7.81,0,0,1,2.91-1.49c2.07-.7,2.43-.94,2.31-1.68s-.39-.82-1.92-.82c-1.77,0-3.88-1-3.88-1.77s1.72-2,3.21-2.43a4.17,4.17,0,0,1,3.29.27,4,4,0,0,1,2.71,2.63c.71,1.53.82,2.24.55,3.14-.71,2.55-2.16,3.8-4.94,4.43-.71.12-1.29.39-1.29.55s2.15,4,4.74,8.5c6.11,10.55,7,12.24,7,13.18a4.77,4.77,0,0,1-4.36,4.23A17.94,17.94,0,0,1,34,69.09c-1.8-1-3.45-1.65-3.61-1.45s-2.9,4.86-6.07,10.43c-3.92,6.82-6,10.07-6.39,10.07S16.54,86.89,15.33,84.69ZM38.22,66.3a34.23,34.23,0,0,0-3.52-6c-.32,0-1.57,2.62-1.57,3.29,0,.31.94,1.1,2.08,1.72C37.2,66.5,38.22,66.85,38.22,66.3ZM30.34,57a4,4,0,0,0,1.45-1.17c.12-.28-.82-2.28-2.07-4.47l-2.28-4-5.25,0H16.94l.27,2.43a8.8,8.8,0,0,0,6.12,7.72A12.39,12.39,0,0,0,30.34,57ZM11.09,48.94A10.17,10.17,0,0,0,12,47.21c0-.31-5.45-.23-6.59.08-.82.24-.63.43,1.57,1.72A17.92,17.92,0,0,0,9.8,50.47C10,50.5,10.59,49.8,11.09,48.94Z"/><path class="a" d="M95.19,73.71c-.28-.15-3.22-5-6.59-10.86-4.74-8.23-6-10.66-5.57-11a16.07,16.07,0,0,1,3.57-1.3,34.9,34.9,0,0,0,15-8.7c2.47-2.31,3.06-2.7,3.49-2.27.66.74,9.37,15.8,11.44,19.87,1.81,3.53,2,5.06,1.14,7.65a9.69,9.69,0,0,1-5.13,5.84c-2.32,1.1-2.44,1.1-9.61,1.1A54.66,54.66,0,0,1,95.19,73.71Z"/><path class="a" d="M94.8,73.32c-.28-.16-3.22-5.06-6.59-10.86-4.74-8.23-6-10.66-5.57-11a15.85,15.85,0,0,1,3.57-1.3,35.06,35.06,0,0,0,15-8.7c2.47-2.31,3-2.71,3.48-2.28.67.75,9.37,15.8,11.45,19.88,1.81,3.53,2,5.06,1.14,7.65a9.68,9.68,0,0,1-5.14,5.84c-2.31,1.09-2.43,1.09-9.6,1.09A55.51,55.51,0,0,1,94.8,73.32Z"/><path class="a" d="M94.4,72.93c-.27-.16-3.21-5.06-6.58-10.86-4.75-8.23-6-10.66-5.57-11a16.58,16.58,0,0,1,3.57-1.29,35.13,35.13,0,0,0,15-8.7c2.47-2.32,3.06-2.71,3.49-2.28.67.75,9.37,15.8,11.45,19.88,1.8,3.53,2,5.06,1.14,7.64a9.67,9.67,0,0,1-5.14,5.85c-2.31,1.09-2.43,1.09-9.6,1.09A55.82,55.82,0,0,1,94.4,72.93Z"/><path class="a" d="M94,72.54c-.27-.16-3.21-5.06-6.59-10.86-4.74-8.24-6-10.67-5.56-11a16.35,16.35,0,0,1,3.57-1.29,35.05,35.05,0,0,0,15-8.71c2.47-2.31,3.06-2.7,3.49-2.27.67.75,9.37,15.8,11.45,19.88,1.8,3.53,2,5,1.14,7.64a9.65,9.65,0,0,1-5.14,5.84c-2.31,1.1-2.43,1.1-9.61,1.1A57.59,57.59,0,0,1,94,72.54Z"/><path class="f" d="M94,72.54c-.27-.16-3.21-5.06-6.59-10.86-4.74-8.24-6-10.67-5.56-11a16.35,16.35,0,0,1,3.57-1.29,35.05,35.05,0,0,0,15-8.71c2.47-2.31,3.06-2.7,3.49-2.27.67.75,9.37,15.8,11.45,19.88,1.8,3.53,2,5,1.14,7.64a9.65,9.65,0,0,1-5.14,5.84c-2.31,1.1-2.43,1.1-9.61,1.1A57.59,57.59,0,0,1,94,72.54Z"/><path class="c" d="M94,72.54c-.27-.16-3.21-5.06-6.59-10.86-4.74-8.24-6-10.67-5.56-11a16.35,16.35,0,0,1,3.57-1.29,35.05,35.05,0,0,0,15-8.71c2.47-2.31,3.06-2.7,3.49-2.27.67.75,9.37,15.8,11.45,19.88,1.8,3.53,2,5,1.14,7.64a9.65,9.65,0,0,1-5.14,5.84c-2.31,1.1-2.43,1.1-9.61,1.1A57.59,57.59,0,0,1,94,72.54Z"/><path class="a" d="M87.15,43.37a5.16,5.16,0,0,1-2.31-6c.23-1,.43-1.84.43-2s-5.37-.23-11.92-.31c-11.45-.12-12-.16-13-.94A6.29,6.29,0,0,1,58.65,32a2.78,2.78,0,0,1,.2-2.9c.58-1.18,1.41-1.88,3.8-3.18,3.13-1.8,3.49-2.35,2.43-3.84-.31-.47-1.92-3.21-3.57-6.07s-4-7-5.25-9.18c-1.92-3.29-2.2-4-1.77-4.47s2.87-.55,12.82-.55c12,0,12.31,0,14.35.87,2.31,1,3.84,2.62,5.61,5.76a5.66,5.66,0,0,0,1.64,2.12,20,20,0,0,0,3.42-1.77A12.87,12.87,0,0,1,96.17,7a4.6,4.6,0,0,1,4,2.86l.7,1.61-1,2c-.55,1.1-2.82,5.09-5,8.86-5.48,9.41-5.72,9.88-5.64,12.07A26.67,26.67,0,0,1,89,38.27l-.31,2.12,1.14-.16c.9-.08,1.17-.35,1.25-1.17a3,3,0,0,1,1.26-1.88c2-1.42,2.74-.91,2.74,1.8a4.8,4.8,0,0,1-2.74,4.47A4.69,4.69,0,0,1,87.15,43.37ZM69.59,30.51c0-.9-1.22-2.74-1.81-2.74s-4.86,2.39-4.86,2.82c0,.19,1.49.31,3.33.31C68.33,30.9,69.59,30.75,69.59,30.51Zm18-3.61A29.9,29.9,0,0,0,90,22.4c0-.75-1.56-1.61-3.84-2.12a9,9,0,0,0-10.94,8.27L75,30.9H85.23Zm7-12c1.53-2.55,1.92-3.57,1.37-3.57a25.8,25.8,0,0,0-2.55,1.29c-1.53.83-2.31,1.49-2.31,2,0,.83,1.18,3,1.61,3A13.19,13.19,0,0,0,94.64,14.87Z"/><path class="a" d="M86.76,43a5.16,5.16,0,0,1-2.31-6c.23-1,.43-1.84.43-2s-5.37-.24-11.92-.32c-11.45-.11-12-.15-13.06-.94a6.44,6.44,0,0,1-1.64-2.23,2.8,2.8,0,0,1,.19-2.9c.59-1.18,1.41-1.88,3.81-3.18,3.13-1.8,3.49-2.35,2.43-3.84-.32-.47-1.92-3.21-3.57-6.08s-4-7-5.25-9.17c-1.93-3.29-2.2-4-1.77-4.47S57,1.38,66.92,1.38c12,0,12.31,0,14.35.86,2.31,1,3.84,2.63,5.61,5.77.66,1.17,1.41,2.11,1.64,2.11a19.31,19.31,0,0,0,3.41-1.76A13,13,0,0,1,95.78,6.6a4.56,4.56,0,0,1,4,2.86l.71,1.61-1,2c-.55,1.09-2.82,5.09-5,8.86C89,31.29,88.76,31.77,88.84,34a26.76,26.76,0,0,1-.24,3.92L88.29,40l1.13-.16c.91-.08,1.18-.35,1.26-1.18a3.1,3.1,0,0,1,1.25-1.88c2-1.41,2.75-.9,2.75,1.81a4.81,4.81,0,0,1-2.75,4.47A4.67,4.67,0,0,1,86.76,43ZM69.2,30.12c0-.9-1.22-2.75-1.81-2.75s-4.86,2.4-4.86,2.83c0,.19,1.49.31,3.33.31C67.94,30.51,69.2,30.35,69.2,30.12Zm18-3.61A29.28,29.28,0,0,0,89.58,22c0-.74-1.57-1.6-3.84-2.11A9,9,0,0,0,74.8,28.16l-.23,2.35H84.84Zm7-12c1.53-2.55,1.92-3.57,1.37-3.57a24.65,24.65,0,0,0-2.55,1.29c-1.53.83-2.31,1.49-2.31,2,0,.83,1.17,3,1.6,3A13,13,0,0,0,94.25,14.48Z"/><path class="a" d="M86.37,42.59a5.18,5.18,0,0,1-2.32-6c.24-1,.43-1.85.43-2s-5.37-.24-11.91-.32c-11.45-.12-12-.15-13.06-.94a6.31,6.31,0,0,1-1.64-2.23,2.76,2.76,0,0,1,.19-2.9c.59-1.18,1.41-1.89,3.8-3.18,3.14-1.8,3.49-2.35,2.43-3.84-.31-.47-1.92-3.22-3.56-6.08s-4-7-5.26-9.17c-1.92-3.3-2.19-4-1.76-4.47S56.57,1,66.53,1c12,0,12.31,0,14.35.86,2.31,1,3.84,2.63,5.6,5.77.67,1.17,1.42,2.11,1.65,2.11A19.67,19.67,0,0,0,91.54,8,13.1,13.1,0,0,1,95.38,6.2a4.57,4.57,0,0,1,4,2.87l.71,1.6-1,2c-.55,1.1-2.82,5.1-5,8.86-5.49,9.41-5.72,9.88-5.65,12.08a26.7,26.7,0,0,1-.23,3.92l-.31,2.12L89,39.45c.9-.08,1.18-.35,1.26-1.18a3.05,3.05,0,0,1,1.25-1.88c2-1.41,2.75-.9,2.75,1.8a4.8,4.8,0,0,1-2.75,4.47A4.69,4.69,0,0,1,86.37,42.59ZM68.8,29.73c0-.91-1.21-2.75-1.8-2.75-.75,0-4.86,2.39-4.86,2.82,0,.2,1.49.32,3.33.32C67.55,30.12,68.8,30,68.8,29.73Zm18-3.61a29.77,29.77,0,0,0,2.35-4.51c0-.74-1.57-1.61-3.84-2.12a9,9,0,0,0-10.94,8.28l-.24,2.35H84.45Zm7-12c1.53-2.54,1.93-3.56,1.38-3.56a22.54,22.54,0,0,0-2.55,1.29c-1.53.82-2.31,1.49-2.31,2,0,.82,1.17,3,1.6,3A13,13,0,0,0,93.85,14.08Z"/><path class="a" d="M86,42.19a5.17,5.17,0,0,1-2.31-6c.24-1,.43-1.84.43-2S78.72,34,72.17,34c-11.44-.12-12-.16-13.05-.94a6.41,6.41,0,0,1-1.65-2.24,2.78,2.78,0,0,1,.2-2.9c.59-1.17,1.41-1.88,3.8-3.17,3.14-1.81,3.49-2.35,2.43-3.84-.31-.47-1.92-3.22-3.57-6.08s-4-7-5.25-9.17c-1.92-3.3-2.19-4-1.76-4.47S56.18.6,66.14.6c12,0,12.31,0,14.35.86,2.31,1,3.84,2.63,5.6,5.76.67,1.18,1.41,2.12,1.65,2.12a20.05,20.05,0,0,0,3.41-1.76A13.1,13.1,0,0,1,95,5.81a4.58,4.58,0,0,1,4,2.86l.71,1.61-1,2c-.55,1.1-2.83,5.1-5,8.86C88.21,30.51,88,31,88.05,33.18a28.16,28.16,0,0,1-.23,3.92l-.32,2.11,1.14-.15c.9-.08,1.18-.36,1.25-1.18A3,3,0,0,1,91.15,36c2-1.41,2.74-.9,2.74,1.8a4.8,4.8,0,0,1-2.74,4.47A4.69,4.69,0,0,1,86,42.19ZM68.41,29.33c0-.9-1.21-2.74-1.8-2.74-.75,0-4.86,2.39-4.86,2.82,0,.2,1.49.32,3.33.32C67.16,29.73,68.41,29.57,68.41,29.33Zm18-3.6a29.76,29.76,0,0,0,2.36-4.51c0-.75-1.57-1.61-3.84-2.12A9,9,0,0,0,74,27.37l-.24,2.36H84.05Zm7-12c1.53-2.55,1.92-3.57,1.37-3.57a25,25,0,0,0-2.54,1.3c-1.53.82-2.32,1.49-2.32,2,0,.82,1.18,3,1.61,3A13,13,0,0,0,93.46,13.69Z"/><path class="g" d="M86,42.19a5.17,5.17,0,0,1-2.31-6c.24-1,.43-1.84.43-2S78.72,34,72.17,34c-11.44-.12-12-.16-13.05-.94a6.41,6.41,0,0,1-1.65-2.24,2.78,2.78,0,0,1,.2-2.9c.59-1.17,1.41-1.88,3.8-3.17,3.14-1.81,3.49-2.35,2.43-3.84-.31-.47-1.92-3.22-3.57-6.08s-4-7-5.25-9.17c-1.92-3.3-2.19-4-1.76-4.47S56.18.6,66.14.6c12,0,12.31,0,14.35.86,2.31,1,3.84,2.63,5.6,5.76.67,1.18,1.41,2.12,1.65,2.12a20.05,20.05,0,0,0,3.41-1.76A13.1,13.1,0,0,1,95,5.81a4.58,4.58,0,0,1,4,2.86l.71,1.61-1,2c-.55,1.1-2.83,5.1-5,8.86C88.21,30.51,88,31,88.05,33.18a28.16,28.16,0,0,1-.23,3.92l-.32,2.11,1.14-.15c.9-.08,1.18-.36,1.25-1.18A3,3,0,0,1,91.15,36c2-1.41,2.74-.9,2.74,1.8a4.8,4.8,0,0,1-2.74,4.47A4.69,4.69,0,0,1,86,42.19ZM68.41,29.33c0-.9-1.21-2.74-1.8-2.74-.75,0-4.86,2.39-4.86,2.82,0,.2,1.49.32,3.33.32C67.16,29.73,68.41,29.57,68.41,29.33Zm18-3.6a29.76,29.76,0,0,0,2.36-4.51c0-.75-1.57-1.61-3.84-2.12A9,9,0,0,0,74,27.37l-.24,2.36H84.05Zm7-12c1.53-2.55,1.92-3.57,1.37-3.57a25,25,0,0,0-2.54,1.3c-1.53.82-2.32,1.49-2.32,2,0,.82,1.18,3,1.61,3A13,13,0,0,0,93.46,13.69Z"/><path class="c" d="M86,42.19a5.17,5.17,0,0,1-2.31-6c.24-1,.43-1.84.43-2S78.72,34,72.17,34c-11.44-.12-12-.16-13.05-.94a6.41,6.41,0,0,1-1.65-2.24,2.78,2.78,0,0,1,.2-2.9c.59-1.17,1.41-1.88,3.8-3.17,3.14-1.81,3.49-2.35,2.43-3.84-.31-.47-1.92-3.22-3.57-6.08s-4-7-5.25-9.17c-1.92-3.3-2.19-4-1.76-4.47S56.18.6,66.14.6c12,0,12.31,0,14.35.86,2.31,1,3.84,2.63,5.6,5.76.67,1.18,1.41,2.12,1.65,2.12a20.05,20.05,0,0,0,3.41-1.76A13.1,13.1,0,0,1,95,5.81a4.58,4.58,0,0,1,4,2.86l.71,1.61-1,2c-.55,1.1-2.83,5.1-5,8.86C88.21,30.51,88,31,88.05,33.18a28.16,28.16,0,0,1-.23,3.92l-.32,2.11,1.14-.15c.9-.08,1.18-.36,1.25-1.18A3,3,0,0,1,91.15,36c2-1.41,2.74-.9,2.74,1.8a4.8,4.8,0,0,1-2.74,4.47A4.69,4.69,0,0,1,86,42.19ZM68.41,29.33c0-.9-1.21-2.74-1.8-2.74-.75,0-4.86,2.39-4.86,2.82,0,.2,1.49.32,3.33.32C67.16,29.73,68.41,29.57,68.41,29.33Zm18-3.6a29.76,29.76,0,0,0,2.36-4.51c0-.75-1.57-1.61-3.84-2.12A9,9,0,0,0,74,27.37l-.24,2.36H84.05Zm7-12c1.53-2.55,1.92-3.57,1.37-3.57a25,25,0,0,0-2.54,1.3c-1.53.82-2.32,1.49-2.32,2,0,.82,1.18,3,1.61,3A13,13,0,0,0,93.46,13.69Z"/><path class="a" d="M45.36,37.88a38.09,38.09,0,0,0-15.84-9.33,12.39,12.39,0,0,1-3.33-1.29c-.51-.51-.43-.67,8.58-16.16,3.65-6.27,4.24-7,6.67-8.19C45.28,1,50.53,2,52.89,5.18c.51.67,2.47,3.89,4.35,7.18l3.41,6-3.41,6c-5.8,10.07-8.82,15.17-9.25,15.4C47.79,39.88,46.61,39,45.36,37.88Z"/><path class="a" d="M45,37.49a38,38,0,0,0-15.84-9.33,12,12,0,0,1-3.33-1.3c-.51-.51-.44-.66,8.58-16.15,3.65-6.27,4.24-7,6.67-8.19,3.84-1.92,9.09-.9,11.44,2.27C53,5.46,55,8.67,56.85,12l3.41,6-3.41,6C51,34,48,39.1,47.59,39.33,47.4,39.49,46.22,38.63,45,37.49Z"/><path class="a" d="M44.57,37.1a38,38,0,0,0-15.83-9.33,12.22,12.22,0,0,1-3.34-1.3C24.89,26,25,25.81,34,10.32c3.65-6.27,4.23-7,6.66-8.19C44.5.21,49.75,1.23,52.1,4.4c.51.67,2.47,3.88,4.35,7.18l3.41,6-3.41,6c-5.8,10.08-8.82,15.17-9.25,15.41C47,39.1,45.83,38.23,44.57,37.1Z"/><path class="a" d="M44.18,36.7a38.09,38.09,0,0,0-15.84-9.33A12.7,12.7,0,0,1,25,26.08c-.51-.51-.43-.67,8.59-16.15,3.64-6.27,4.23-7,6.66-8.2C44.1-.19,49.36.83,51.71,4c.51.67,2.47,3.88,4.35,7.17l3.41,6-3.41,6c-5.8,10.08-8.82,15.17-9.25,15.41C46.61,38.7,45.44,37.84,44.18,36.7Z"/><path class="h" d="M44.18,36.7a38.09,38.09,0,0,0-15.84-9.33A12.7,12.7,0,0,1,25,26.08c-.51-.51-.43-.67,8.59-16.15,3.64-6.27,4.23-7,6.66-8.2C44.1-.19,49.36.83,51.71,4c.51.67,2.47,3.88,4.35,7.17l3.41,6-3.41,6c-5.8,10.08-8.82,15.17-9.25,15.41C46.61,38.7,45.44,37.84,44.18,36.7Z"/><path class="c" d="M44.18,36.7a38.09,38.09,0,0,0-15.84-9.33A12.7,12.7,0,0,1,25,26.08c-.51-.51-.43-.67,8.59-16.15,3.64-6.27,4.23-7,6.66-8.2C44.1-.19,49.36.83,51.71,4c.51.67,2.47,3.88,4.35,7.17l3.41,6-3.41,6c-5.8,10.08-8.82,15.17-9.25,15.41C46.61,38.7,45.44,37.84,44.18,36.7Z"/></svg>